<?xml version="1.0" encoding="utf-8"?>
<!-- Generator: Adobe Illustrator 23.0.5, SVG Export Plug-In . SVG Version: 6.00 Build 0)  -->
<svg version="1.1" id="Layer_1" xmlns="http://www.w3.org/2000/svg" xmlns:xlink="http://www.w3.org/1999/xlink" x="0px" y="0px"
	 viewBox="0 0 111 93.8" style="enable-background:new 0 0 111 93.8;" xml:space="preserve">
<style type="text/css">
	.st0{fill:#FFFFFF;}
	.st1{opacity:0.2;fill:#FFFFFF;enable-background:new    ;}
</style>
<g>
	<g>
		<path class="st0" d="M74.6,76.7l-9.8,17.1H18.7L0,61.4l17.6-30.5H48l5.2,9H22.8L14,55.3l8.8,15.3h41.7l3.3-5.7l0,0L74.6,76.7z"/>
		<polygon class="st0" points="111,93.8 92.4,93.8 50.9,21.9 14,21.9 18.7,13.8 64.9,13.8 		"/>
		<polygon class="st0" points="110.9,13.8 91.9,46.8 85,35 97.4,13.8 		"/>
		<polygon class="st0" points="111,0 98.4,0 98.4,8.1 111,12 		"/>
		<polygon class="st1" points="14,55.3 22.8,70.6 0,61.4 17.6,31 48,31 53.3,40 22.8,40 		"/>
		<path class="st1" d="M74.6,76.7l-9.8,17.1H18.7L58.5,81l6-10.4l3.3-5.7l0,0L74.6,76.7z"/>
		<polygon class="st1" points="111,93.8 92.4,93.8 64.9,13.8 		"/>
		<polygon class="st1" points="50.9,21.9 14,21.9 18.7,13.8 		"/>
		<polygon class="st1" points="97.4,13.8 91.9,46.8 85,35 		"/>
	</g>
</g>
</svg>
