<?xml version="1.0" encoding="utf-8"?>
<!-- Generator: Adobe Illustrator 23.0.5, SVG Export Plug-In . SVG Version: 6.00 Build 0)  -->
<svg version="1.1" id="Layer_1" xmlns="http://www.w3.org/2000/svg" xmlns:xlink="http://www.w3.org/1999/xlink" x="0px" y="0px"
	 viewBox="0 0 250 145.5" style="enable-background:new 0 0 250 145.5;" xml:space="preserve">
<style type="text/css">
	.st0{fill:#FFFFFF;}
	.st1{fill:#40C4F1;}
</style>
<g>
	<path class="st0" d="M101.7,61.3c-8.6,3-17.3,6.4-25.7,10.2L62.3,30.7L42.8,89.3C26.9,99.4,12.3,111.4,0,125.8L41,12.4
		C41,12.4,45.1,0,54.4,0s24,0,24,0L101.7,61.3z"/>
	<path class="st0" d="M131.9,140.4h-33l-12.6-37.7c7.8-3.7,16.7-7.6,26.8-11.5L131.9,140.4z"/>
	<path class="st0" d="M147.2,48.5c-9.6,2.1-19.5,4.7-29.5,7.6V7.8c0-4,3.3-7.3,7.3-7.3h22.2V48.5z"/>
	<path class="st0" d="M230.5,7.8v29.5c-8,0.4-18,1.1-29.5,2.4V0.5h22.2C227.2,0.5,230.5,3.8,230.5,7.8z"/>
	<path class="st0" d="M201,65.5c9.3-2,19.2-4,29.5-5.8v34.5c0,28.2-23.1,51.3-51.3,51.3H169c-14.2,0-27.1-5.9-36.4-15.3l-14.9-38.9
		v-1.9c8.9-3.4,18.7-6.7,29.5-10v19c0,12.9,10.5,23.4,23.4,23.4h7c12.9,0,23.4-10.5,23.4-23.4V65.5z"/>
	<path class="st1" d="M0.8,140.4h16.5c0,0,41.5-64.4,232.7-93.8C250,46.6,72.6,44.1,0.8,140.4z"/>
</g>
</svg>
