<?xml version="1.0" encoding="utf-8"?>
<!-- Generator: Adobe Illustrator 23.0.5, SVG Export Plug-In . SVG Version: 6.00 Build 0)  -->
<svg version="1.1" id="Layer_1" xmlns="http://www.w3.org/2000/svg" xmlns:xlink="http://www.w3.org/1999/xlink" x="0px" y="0px"
	 viewBox="0 0 250 147.5" style="enable-background:new 0 0 250 147.5;" xml:space="preserve">
<style type="text/css">
	.st0{fill:#FFFFFF;}
	.st1{fill:#5069e7;}
</style>
<g>
	<g>
		<path class="st0" d="M108.7,42.9c-6,2.1-12.1,4.5-18,7.1l-9.5-28.6l-13.7,41c-11.1,7.1-21.3,15.5-29.9,25.5L66.2,8.6
			c0,0,2.9-8.6,9.4-8.6c6.5,0,16.8,0,16.8,0L108.7,42.9z"/>
		<path class="st0" d="M129.8,98.2h-23.1L98,71.8c5.4-2.6,11.7-5.3,18.7-8.1L129.8,98.2z"/>
		<path class="st0" d="M140.5,33.9c-6.7,1.5-13.7,3.3-20.6,5.3V5.5c0-2.8,2.3-5.1,5.1-5.1h15.5V33.9z"/>
		<path class="st0" d="M198.8,5.5v20.6c-5.6,0.3-12.6,0.8-20.6,1.7V0.4h15.5C196.5,0.4,198.8,2.7,198.8,5.5z"/>
		<path class="st0" d="M178.2,45.8c6.5-1.4,13.4-2.8,20.6-4v24.1c0,19.7-16.1,35.9-35.9,35.9h-7.2c-9.9,0-19-4.1-25.5-10.7
			l-10.4-27.2v-1.3c6.2-2.3,13.1-4.7,20.6-7v13.3c0,9,7.4,16.4,16.4,16.4h4.9c9,0,16.4-7.4,16.4-16.4V45.8z"/>
		<path class="st1" d="M38.1,98.2h11.5c0,0,29-45,162.7-65.6C212.4,32.6,88.4,30.8,38.1,98.2z"/>
	</g>
	<g>
		<g>
			<g>
				<g>
					<path class="st0" d="M203,147.5h-13.3c-0.5,0-0.9-0.4-0.9-0.9s0.4-0.9,0.9-0.9H203c0.5,0,0.9,0.4,0.9,0.9
						S203.5,147.5,203,147.5z"/>
				</g>
				<g>
					<path class="st0" d="M189.7,147.5c-0.5,0-0.9-0.4-0.9-0.9V118c0-0.5,0.4-0.9,0.9-0.9s0.9,0.4,0.9,0.9v28.6
						C190.6,147.1,190.2,147.5,189.7,147.5z"/>
				</g>
			</g>
			<g>
				<g>
					<path class="st0" d="M222.3,147.5H209c-0.5,0-0.9-0.4-0.9-0.9s0.4-0.9,0.9-0.9h13.3c0.5,0,0.9,0.4,0.9,0.9
						S222.8,147.5,222.3,147.5z"/>
				</g>
				<g>
					<path class="st0" d="M209,147.5c-0.5,0-0.9-0.4-0.9-0.9V118c0-0.5,0.4-0.9,0.9-0.9s0.9,0.4,0.9,0.9v28.6
						C209.9,147.1,209.5,147.5,209,147.5z"/>
				</g>
			</g>
			<g>
				<path class="st0" d="M236.7,147.5c-8.4,0-15.2-6.8-15.2-15.2s6.8-15.2,15.2-15.2c5.4,0,10.4,2.9,13.2,7.6
					c0.2,0.4,0.1,0.9-0.3,1.2c-0.4,0.2-0.9,0.1-1.2-0.3c-2.4-4.2-6.9-6.7-11.7-6.7c-7.4,0-13.5,6-13.5,13.5c0,7.4,6,13.5,13.5,13.5
					c4.7,0,9.2-2.5,11.6-6.6c0.2-0.4,0.8-0.5,1.2-0.3c0.4,0.2,0.5,0.8,0.3,1.2C247.1,144.6,242.1,147.5,236.7,147.5z"/>
			</g>
		</g>
		<g>
			<g>
				<g>
					<path class="st0" d="M15.2,118.8H0.9c-0.5,0-0.9-0.4-0.9-0.9s0.4-0.9,0.9-0.9h14.3c0.5,0,0.9,0.4,0.9,0.9
						S15.6,118.8,15.2,118.8z"/>
				</g>
				<g>
					<path class="st0" d="M8,147.5c-0.5,0-0.9-0.4-0.9-0.9V118c0-0.5,0.4-0.9,0.9-0.9c0.5,0,0.9,0.4,0.9,0.9v28.6
						C8.9,147.1,8.5,147.5,8,147.5z"/>
				</g>
			</g>
			<g>
				<g>
					<path class="st0" d="M34.5,118.8H21.2c-0.5,0-0.9-0.4-0.9-0.9s0.4-0.9,0.9-0.9h13.3c0.5,0,0.9,0.4,0.9,0.9S35,118.8,34.5,118.8
						z"/>
				</g>
				<g>
					<path class="st0" d="M34.5,133.2H21.2c-0.5,0-0.9-0.4-0.9-0.9s0.4-0.9,0.9-0.9h13.3c0.5,0,0.9,0.4,0.9,0.9S35,133.2,34.5,133.2
						z"/>
				</g>
				<g>
					<path class="st0" d="M34.5,147.5H21.2c-0.5,0-0.9-0.4-0.9-0.9s0.4-0.9,0.9-0.9h13.3c0.5,0,0.9,0.4,0.9,0.9S35,147.5,34.5,147.5
						z"/>
				</g>
				<g>
					<path class="st0" d="M21.2,147.5c-0.5,0-0.9-0.4-0.9-0.9V118c0-0.5,0.4-0.9,0.9-0.9s0.9,0.4,0.9,0.9v28.6
						C22,147.1,21.7,147.5,21.2,147.5z"/>
				</g>
			</g>
			<g>
				<g>
					<path class="st0" d="M73.1,118.8H59.8c-0.5,0-0.9-0.4-0.9-0.9s0.4-0.9,0.9-0.9h13.3c0.5,0,0.9,0.4,0.9,0.9
						S73.6,118.8,73.1,118.8z"/>
				</g>
				<g>
					<path class="st0" d="M73.1,133.2H59.8c-0.5,0-0.9-0.4-0.9-0.9s0.4-0.9,0.9-0.9h13.3c0.5,0,0.9,0.4,0.9,0.9
						S73.6,133.2,73.1,133.2z"/>
				</g>
				<g>
					<path class="st0" d="M73.1,147.5H59.8c-0.5,0-0.9-0.4-0.9-0.9s0.4-0.9,0.9-0.9h13.3c0.5,0,0.9,0.4,0.9,0.9
						S73.6,147.5,73.1,147.5z"/>
				</g>
				<g>
					<path class="st0" d="M59.8,147.5c-0.5,0-0.9-0.4-0.9-0.9V118c0-0.5,0.4-0.9,0.9-0.9c0.5,0,0.9,0.4,0.9,0.9v28.6
						C60.7,147.1,60.3,147.5,59.8,147.5z"/>
				</g>
			</g>
			<g>
				<g>
					<path class="st0" d="M53.8,147.5H40.5c-0.5,0-0.9-0.4-0.9-0.9s0.4-0.9,0.9-0.9h13.3c0.5,0,0.9,0.4,0.9,0.9
						S54.3,147.5,53.8,147.5z"/>
				</g>
				<g>
					<path class="st0" d="M40.5,147.5c-0.5,0-0.9-0.4-0.9-0.9V118c0-0.5,0.4-0.9,0.9-0.9c0.5,0,0.9,0.4,0.9,0.9v28.6
						C41.4,147.1,41,147.5,40.5,147.5z"/>
				</g>
			</g>
			<g>
				<path class="st0" d="M124.5,119.7c7,0,12.6,5.7,12.6,12.6c0,7-5.7,12.6-12.6,12.6c-7,0-12.6-5.7-12.6-12.6
					C111.9,125.4,117.6,119.7,124.5,119.7 M124.5,118c-7.9,0-14.3,6.4-14.3,14.3s6.4,14.3,14.3,14.3s14.3-6.4,14.3-14.3
					S132.4,118,124.5,118L124.5,118z"/>
			</g>
			<g>
				<g>
					<path class="st0" d="M93.5,147.5c-8.4,0-15.2-6.8-15.2-15.2s6.8-15.2,15.2-15.2c5.4,0,10.4,2.9,13.2,7.6
						c0.2,0.4,0.1,0.9-0.3,1.2c-0.4,0.2-0.9,0.1-1.2-0.3c-2.4-4.2-6.9-6.7-11.7-6.7c-7.4,0-13.5,6-13.5,13.5c0,7.4,6,13.5,13.5,13.5
						c4.7,0,9.2-2.5,11.6-6.6c0.2-0.4,0.8-0.5,1.2-0.3c0.4,0.2,0.5,0.8,0.3,1.2C103.8,144.6,98.8,147.5,93.5,147.5z"/>
				</g>
			</g>
			<g>
				<g>
					<path class="st0" d="M143,147.5c0,0-0.1,0-0.1,0c-0.5-0.1-0.8-0.5-0.7-1l3.9-28.6c0.1-0.5,0.5-0.8,1-0.7c0.5,0.1,0.8,0.5,0.7,1
						l-3.9,28.6C143.8,147.2,143.4,147.5,143,147.5z"/>
				</g>
				<g>
					<path class="st0" d="M156.8,147.5c-0.4,0-0.7-0.2-0.8-0.6l-10-28.6c-0.2-0.4,0.1-0.9,0.5-1.1c0.4-0.2,0.9,0.1,1.1,0.5l10,28.6
						c0.2,0.4-0.1,0.9-0.5,1.1C157,147.5,156.9,147.5,156.8,147.5z"/>
				</g>
				<g>
					<path class="st0" d="M170.7,147.5c-0.4,0-0.8-0.3-0.8-0.7l-3.9-28.6c-0.1-0.5,0.3-0.9,0.7-1c0.5-0.1,0.9,0.3,1,0.7l3.9,28.6
						c0.1,0.5-0.3,0.9-0.7,1C170.8,147.5,170.7,147.5,170.7,147.5z"/>
				</g>
				<g>
					<path class="st0" d="M156.8,147.5c-0.1,0-0.2,0-0.3,0c-0.4-0.2-0.7-0.6-0.5-1.1l10-28.6c0.2-0.4,0.6-0.7,1.1-0.5
						c0.4,0.2,0.7,0.6,0.5,1.1l-10,28.6C157.5,147.3,157.2,147.5,156.8,147.5z"/>
				</g>
			</g>
		</g>
	</g>
</g>
</svg>
