<?xml version="1.0" encoding="utf-8"?>
<!-- Generator: Adobe Illustrator 16.0.0, SVG Export Plug-In . SVG Version: 6.00 Build 0)  -->
<!DOCTYPE svg PUBLIC "-//W3C//DTD SVG 1.1//EN" "http://www.w3.org/Graphics/SVG/1.1/DTD/svg11.dtd" [
	<!ENTITY ns_extend "http://ns.adobe.com/Extensibility/1.0/">
	<!ENTITY ns_ai "http://ns.adobe.com/AdobeIllustrator/10.0/">
	<!ENTITY ns_graphs "http://ns.adobe.com/Graphs/1.0/">
	<!ENTITY ns_vars "http://ns.adobe.com/Variables/1.0/">
	<!ENTITY ns_imrep "http://ns.adobe.com/ImageReplacement/1.0/">
	<!ENTITY ns_sfw "http://ns.adobe.com/SaveForWeb/1.0/">
	<!ENTITY ns_custom "http://ns.adobe.com/GenericCustomNamespace/1.0/">
	<!ENTITY ns_adobe_xpath "http://ns.adobe.com/XPath/1.0/">
]>
<svg version="1.1" id="Layer_1" xmlns:x="&ns_extend;" xmlns:i="&ns_ai;" xmlns:graph="&ns_graphs;"
	 xmlns="http://www.w3.org/2000/svg" xmlns:xlink="http://www.w3.org/1999/xlink" x="0px" y="0px" width="200px" height="15.404px"
	 viewBox="0 0 200 15.404" enable-background="new 0 0 200 15.404" xml:space="preserve">
<metadata>
	<sfw  xmlns="&ns_sfw;">
		<slices></slices>
		<sliceSourceBounds  height="15.407" width="199.512" x="859.744" y="532.797" bottomLeftOrigin="true"></sliceSourceBounds>
		<optimizationSettings>
			<targetSettings  fileFormat="PNG24Format" targetSettingsID="0">
				<PNG24Format  transparency="true" matteColor="#FFFFFF" filtered="false" interlaced="false" noMatteColor="false">
					</PNG24Format>
			</targetSettings>
		</optimizationSettings>
	</sfw>
</metadata>
<rect x="3.28" y="0.881" fill="none" width="13.069" height="12.883"/>
<defs>
	<filter id="Adobe_OpacityMaskFilter" filterUnits="userSpaceOnUse" x="3.28" y="0.881" width="13.069" height="12.883">
		<feColorMatrix  type="matrix" values="1 0 0 0 0  0 1 0 0 0  0 0 1 0 0  0 0 0 1 0"/>
	</filter>
</defs>
<mask maskUnits="userSpaceOnUse" x="3.28" y="0.881" width="13.069" height="12.883" id="SVGID_1_">
	<g filter="url(#Adobe_OpacityMaskFilter)">
		<rect x="3.28" y="0.883" width="13.069" height="12.881"/>
		<g enable-background="new    ">
			<g>
				<g>
					<g>
						<defs>
							<path id="SVGID_2_" d="M16.349,7.322c0,3.559-2.926,6.438-6.535,6.438S3.28,10.881,3.28,7.322s2.925-6.439,6.534-6.439
								S16.349,3.764,16.349,7.322"/>
						</defs>
						<clipPath id="SVGID_3_">
							<use xlink:href="#SVGID_2_"  overflow="visible"/>
						</clipPath>
						
							<radialGradient id="SVGID_4_" cx="972.7314" cy="343.6501" r="0.1157" gradientTransform="matrix(55.5735 0 0 -55.5735 -54048.0742 19105.0762)" gradientUnits="userSpaceOnUse">
							<stop  offset="0" style="stop-color:#FFFFFF"/>
							<stop  offset="0.8736" style="stop-color:#FFFFFF"/>
							<stop  offset="0.9218" style="stop-color:#F9F9F9"/>
							<stop  offset="0.9391" style="stop-color:#EBEAE9"/>
							<stop  offset="0.9515" style="stop-color:#D8D7D6"/>
							<stop  offset="0.9615" style="stop-color:#C1BEBE"/>
							<stop  offset="0.9701" style="stop-color:#A4A1A1"/>
							<stop  offset="0.9777" style="stop-color:#858181"/>
							<stop  offset="0.9845" style="stop-color:#636060"/>
							<stop  offset="0.9908" style="stop-color:#434140"/>
							<stop  offset="0.9964" style="stop-color:#222121"/>
							<stop  offset="1" style="stop-color:#020202"/>
						</radialGradient>
						<rect x="3.28" y="0.883" clip-path="url(#SVGID_3_)" fill="url(#SVGID_4_)" width="13.069" height="12.881"/>
					</g>
				</g>
			</g>
		</g>
	</g>
</mask>
<g mask="url(#SVGID_1_)">
	<g>
		<g>
			<defs>
				<path id="SVGID_5_" d="M16.349,7.322c0,3.559-2.926,6.438-6.535,6.438S3.28,10.881,3.28,7.322s2.925-6.441,6.534-6.441
					S16.349,3.764,16.349,7.322"/>
			</defs>
			<clipPath id="SVGID_6_">
				<use xlink:href="#SVGID_5_"  overflow="visible"/>
			</clipPath>
			
				<radialGradient id="SVGID_7_" cx="973.9531" cy="344.0115" r="0.1169" gradientTransform="matrix(57.3257 0 0 -57.3257 -55822.7813 19728.1016)" gradientUnits="userSpaceOnUse">
				<stop  offset="0" style="stop-color:#FFFFFF"/>
				<stop  offset="0.0209" style="stop-color:#FFFFFF"/>
				<stop  offset="0.4879" style="stop-color:#FFFFFF"/>
				<stop  offset="0.584" style="stop-color:#F8F7F6"/>
				<stop  offset="0.6914" style="stop-color:#EAE8E6"/>
				<stop  offset="0.8039" style="stop-color:#D5D3CE"/>
				<stop  offset="0.8146" style="stop-color:#D3D1CB"/>
				<stop  offset="1" style="stop-color:#9D9A97"/>
			</radialGradient>
			<rect x="3.28" y="0.881" clip-path="url(#SVGID_6_)" fill="url(#SVGID_7_)" width="13.069" height="12.883"/>
		</g>
	</g>
</g>
<g>
	<g>
		<g>
			<defs>
				<path id="SVGID_8_" d="M6.476,7.408c-0.112,0.033-0.128,0.043-0.081,0.23c0.121-0.014,0.121-0.014,0.267,0.17l0.142-0.133
					L6.691,7.502L6.506,7.4L6.476,7.408z M5.817,7.176C5.909,7.34,5.909,7.34,6.137,7.393l0.062-0.057
					C6.176,7.327,6.149,7.3,6.095,7.227c-0.06-0.079-0.087-0.114-0.128-0.114C5.934,7.113,5.892,7.135,5.817,7.176 M5.782,7.168
					l0.035,0.008C5.812,7.129,5.793,6.986,5.658,6.984C5.575,6.982,5.527,6.979,5.45,6.967C5.474,7.002,5.539,7.096,5.782,7.168
					 M4.166,6.045l0.003-0.002L4.166,6.045z M9.027,4.922C9.029,4.924,9.198,5.06,9.225,5.127L9.356,4.98L9.024,4.92L9.027,4.922z
					 M11.689,3.271c-0.076,0.016-0.127,0.037-0.18,0.066c0.042,0.029,0.099,0.07,0.141,0.102c0.278-0.047,0.279-0.104,0.279-0.154
					l-0.001-0.02c-0.036-0.008-0.07-0.01-0.104-0.01C11.781,3.258,11.738,3.262,11.689,3.271 M5.714,2.904l0.008-0.008l-0.023,0.02
					L5.671,2.949l0.022-0.014L5.72,2.918L5.736,2.9L5.748,2.88L5.722,2.904l0.005-0.006L5.746,2.88L5.714,2.904z M9.124,2.814
					C9.007,2.854,9.007,2.854,8.94,2.91c0.005,0.004,0.005,0.004,0.059,0.115c0.1-0.051,0.29,0.018,0.304,0.129
					C9.193,3.285,9.137,3.363,9.062,3.49C8.984,3.488,8.91,3.516,8.835,3.525c0.081,0.008,0.167,0.014,0.253,0.02l0.101,0.191
					c0.187-0.375,0.307-0.297,0.434-0.168C9.656,3.533,9.716,3.471,9.73,3.381l0.003-0.027c-0.091,0.029-0.082-0.11-0.078-0.188
					C9.575,3.111,9.551,3.072,9.554,3.01C9.53,3.006,9.492,2.992,9.425,2.965C9.347,2.93,9.318,2.927,9.292,2.936
					c-0.015-0.031-0.035-0.072-0.05-0.104C9.206,2.857,9.177,2.877,9.113,2.926C9.098,2.92,9.103,2.891,9.13,2.813L9.124,2.814z
					 M8.896,2.707c-0.015,0.029-0.041,0.084-0.02,0.246l0.001,0.012c0.03-0.07,0.03-0.154,0.022-0.266L8.896,2.707z M8.067,2.557
					c-0.005,0.056-0.066,0.086-0.07,0.142c-0.002,0.035,0.016,0.072,0.005,0.11C7.996,2.832,7.987,2.848,7.976,2.871
					c-0.005-0.002-0.08,0.01-0.129,0.033c0.073,0.139,0.308,0.16,0.594-0.072l0.034-0.025C8.357,2.783,8.342,2.744,8.333,2.719
					C8.31,2.717,8.283,2.725,8.209,2.756C8.181,2.73,8.144,2.697,8.116,2.672c0-0.074,0-0.074-0.049-0.119V2.557z M8.067,2.552
					L8.059,2.545L8.067,2.552z M8.93,2.463C8.87,2.492,8.833,2.513,8.833,2.513L8.829,2.52c-0.018,0.039-0.04,0.078-0.064,0.117
					c0.017,0.002,0.068,0.008,0.162-0.074l0.006-0.004C8.934,2.53,8.936,2.493,8.937,2.461L8.93,2.463z M8.272,2.5l0.006,0.025
					c0.179,0.004,0.179,0.004,0.187,0.004C8.428,2.551,8.379,2.58,8.342,2.6C8.4,2.615,8.42,2.682,8.478,2.697
					c0.032,0.006,0.063,0.01,0.096,0.016c0.032-0.039,0.062-0.078,0.093-0.115L8.681,2.58C8.645,2.605,8.602,2.619,8.563,2.641
					c0.001-0.035-0.015-0.07-0.009-0.107C8.559,2.5,8.568,2.48,8.592,2.451l-0.01-0.002c-0.036-0.004-0.073,0-0.108-0.006
					C8.452,2.439,8.448,2.427,8.446,2.422C8.344,2.461,8.305,2.479,8.272,2.5 M6.783,4.844C6.715,4.802,6.662,4.736,6.582,4.713
					c0.169-0.174,0.24-0.188,0.505-0.092c0.06,0.232,0.108,0.381,0.266,0.463L7.346,5.086C7.14,5.168,6.996,5.391,6.739,5.359
					C6.774,5.262,6.841,5.177,6.845,5.07l0.146-0.104c-0.017,0.002-0.036,0.002-0.057,0c-0.04,0-0.084-0.002-0.114,0.016
					c-0.002,0-0.107,0.092-0.206,0.188C6.581,5.203,6.542,5.24,6.438,5.289C6.467,5.141,6.51,5.012,6.783,4.844 M6.59,2.512
					c0.008-0.018,0.018-0.039,0.025-0.057c-0.093,0.01-0.093,0.01-0.307,0.131c-0.016-0.008-0.034-0.02-0.05-0.027
					c-0.05,0.017-0.05,0.017-0.401,0.277C5.865,2.817,5.873,2.8,5.883,2.78C5.825,2.832,5.82,2.836,5.748,2.904
					c0.019-0.012,0.046-0.027,0.066-0.039c0.017,0.008,0.038,0.016,0.055,0.023c0.07-0.047,0.154-0.033,0.23-0.063
					C6.079,2.859,6.053,2.9,6.034,2.932C6.098,2.88,6.098,2.88,6.195,2.841c0.042-0.004,0.048,0.006,0.053,0.016
					C6.23,2.914,6.23,2.914,6.063,3.104C6.107,3.117,6.164,3.139,6.208,3.15C4.641,4.58,4.641,4.58,4.492,4.799
					C4.438,5.104,4.438,5.104,4.346,5.258C4.29,5.377,4.253,5.467,4.219,5.563C4.2,5.611,4.183,5.662,4.166,5.715
					c-0.022,0.109-0.025,0.225-0.061,0.33h0.061c0-0.004,0.01-0.381,0.208-0.594c0.038-0.145,0.038-0.145,0.098-0.24
					C4.3,5.918,4.3,5.918,4.293,6.016C4.248,6.201,4.209,6.352,4.176,6.504c0.019,0.17,0.042,0.398,0.072,0.568
					C5.169,7.652,5.596,8.76,5.6,8.77c-0.632,1.008-0.103,1.301,0.248,1.492c0.022,0.092,0.047,0.182,0.073,0.268
					c0.143,0.15,0.597,0.561,0.981,0.672c0.137,0.703,0.536,1.242,1.186,1.598c0.036,0.043,0.073,0.08,0.111,0.117
					c0.23,0.068,0.441,0.199,0.679,0.256c0.01-0.02,0.024-0.047,0.035-0.064c-0.011-0.014-0.022-0.027-0.033-0.039l-0.121-0.063
					c-0.1-0.146-0.1-0.146-0.077-0.256l-0.16-0.037c0.14-0.033,0.177-0.039,0.316-0.033c-0.019-0.033-0.046-0.072-0.071-0.1
					c0.129-0.057,0.274-0.076,0.389-0.166c0.028,0.008,0.068,0.021,0.098,0.029l0.102-0.076c0.004-0.271,0.004-0.271-0.043-0.424
					c0.726-0.441,0.726-0.441,0.61-0.707c0.416-0.453,0.416-0.453,0.432-0.729c0.001-0.033,0.003-0.074,0.004-0.105
					c-0.009,0-0.955-0.035-1.525-0.582C8.75,9.824,8.627,9.834,8.422,9.992C8.372,9.957,8.304,9.91,8.254,9.877L8.392,9.73
					c-0.226-0.447-0.278-0.455-0.45-0.479C7.613,9.207,7.613,9.207,7.517,8.893L7.441,8.814C7.229,8.607,6.964,8.506,6.684,8.396
					l-0.186,0.02C6.335,8.318,6.265,8.275,6.121,8.182C5.903,8.395,5.833,8.348,5.38,8.043C5.377,8.004,5.25,7.785,5.004,7.639
					L4.962,7.533C4.974,7.432,4.986,7.332,5.001,7.23c0.091-0.105,0.107-0.137,0.142-0.266C5.03,6.957,4.959,7,4.827,7.158
					c-0.056-0.023-0.11-0.049-0.162-0.074c-0.02-0.078-0.08-0.355-0.039-0.643C4.724,6.393,4.724,6.393,4.92,6.025
					c0.359,0.012,0.359,0.012,0.57,0.159c0.054-0.029,0.125-0.068,0.177-0.1L5.72,6.26c0.07,0.008,0.084,0.01,0.191-0.031
					c-0.046,0.24,0.02,0.48,0.007,0.722c0.084-0.07,0.196-0.164,0.28-0.234L6.111,6.521c0.033-0.113,0.053-0.18,0.154-0.359
					C6.252,6.211,6.239,6.26,6.227,6.309c0.12-0.084,0.263-0.121,0.385-0.201c0.1-0.002,0.181,0.014,0.263,0.029
					c0.26-0.314,0.26-0.314,0.338-0.393c0.434-0.193,0.434-0.193,1.56-0.502c-0.105-0.021-0.105-0.021-0.19-0.119
					c0.04-0.045,0.093-0.104,0.135-0.146c-0.01-0.002-0.01-0.002-0.504,0.09C8.462,4.863,8.693,4.85,9.126,4.865
					c0.103,0.004,0.103,0.004,0.511-0.342c-0.113,0.006-0.146,0.016-0.301,0.08C9.356,4.51,9.356,4.51,9.4,4.418
					C9.373,4.369,9.338,4.302,9.311,4.254c0.027-0.088,0.027-0.088,0.078-0.18C9.261,4.01,9.151,4.016,9.015,4.047
					c-0.184-0.313-0.184-0.313-0.281-0.33C8.732,3.771,8.728,3.842,8.725,3.895C8.662,3.889,8.601,3.885,8.54,3.879
					C8.305,4.149,8.023,4.373,7.785,4.643C7.663,4.498,7.589,4.057,7.581,3.906c0.074-0.039,0.172-0.088,0.244-0.125l0.188-0.098
					C8.612,3.308,8.612,3.308,8.83,3.408c0.05-0.045,0.117-0.107,0.167-0.152l-0.04-0.113c-0.12,0.056-0.161,0.066-0.23,0.086
					c-0.066-0.137-0.02-0.274-0.038-0.413L8.67,2.807C8.437,3.242,8.437,3.242,8.181,3.23C8.175,3.213,8.169,3.191,8.164,3.174
					C8.052,3.164,8.041,3.16,7.927,3.115c-0.052,0.023-0.12,0.057-0.172,0.078C7.762,3.177,7.772,3.156,7.778,3.14
					C7.747,3.133,7.702,3.123,7.669,3.117C7.665,3.08,7.658,3.027,7.653,2.99C7.146,3.248,7.142,3.242,7.069,3.156
					c0.235-0.049,0.259-0.053,0.527-0.184C7.555,2.96,7.516,2.951,7.478,2.937l0.045-0.113c-0.051-0.018-0.1-0.033-0.146-0.053
					C7.248,2.824,7.205,2.828,7.094,2.787c0.034-0.051,0.079-0.119,0.114-0.17c-0.07-0.02-0.109-0.029-0.32,0.021
					c0.014-0.029,0.036-0.07,0.056-0.098c-0.01-0.016-0.022-0.033-0.032-0.047c0.01-0.014,0.023-0.033,0.033-0.047
					c-0.039-0.002-0.091,0-0.128,0.008C6.844,2.424,6.88,2.383,6.909,2.354C6.824,2.4,6.824,2.4,6.59,2.512 M9.967,2.174
					C9.955,2.176,9.945,2.182,9.926,2.199c-0.04-0.02-0.12-0.002-0.198,0.018C9.656,2.232,9.618,2.238,9.59,2.238
					C9.6,2.291,9.615,2.324,9.678,2.416c-0.216,0.17-0.286,0.223-0.432,0.215C9.272,2.637,9.295,2.646,9.36,2.684
					c0.19-0.063,0.211-0.068,0.261-0.127C9.649,2.561,9.669,2.57,9.706,2.6c0.029-0.039,0.069-0.094,0.099-0.135
					c0.107-0.006,0.158-0.059,0.21-0.215C10.028,2.211,9.98,2.174,9.967,2.174L9.967,2.174 M9.007,2.174
					C8.796,2.299,8.796,2.299,8.751,2.316c0.104-0.02,0.104-0.02,0.155-0.037C8.903,2.302,8.903,2.314,8.908,2.33
					c0.007-0.004,0.02-0.012,0.075-0.053c0.023-0.021,0.023-0.021,0.038-0.113L9.007,2.174z M10.818,2.07l-0.036,0.012l-0.011,0.004
					c-0.03,0.012-0.045,0.041-0.074,0.053c-0.011,0.004-0.021,0.002-0.033,0c-0.015-0.006-0.03-0.01-0.043,0.004
					c-0.027,0.021-0.025,0.061-0.021,0.109c-0.044-0.006-0.074-0.049-0.123-0.045c-0.061,0.006-0.111,0.002-0.111,0.002
					c-0.014-0.006-0.059-0.02-0.15-0.063c-0.005,0.043-0.012,0.098-0.016,0.141c-0.02-0.004-0.035-0.006-0.087-0.053
					c-0.071,0.12-0.133,0.198-0.255,0.327C9.909,2.563,10.016,2.6,10.016,2.6c0.074,0.063,0.136,0.176,0.197,0.248
					c0.007,0.049,0.002,0.086-0.015,0.16c0.028,0.033,0.065,0.08,0.093,0.115c-0.036,0.09-0.073,0.172-0.108,0.24L10.165,3.4
					c-0.009,0.104,0.064,0.186,0.078,0.283c0.09,0.021,0.137,0.129,0.241,0.123c0.08-0.002,0.077-0.064,0.068-0.137
					c0.125-0.023,0.566-0.275,0.854-0.65c-0.046,0.002-0.181-0.066-0.183-0.104c0.023-0.023,0.046-0.031,0.205-0.023
					c-0.047-0.068-0.095-0.135-0.143-0.195c0.029-0.004,0.057,0.004,0.125,0.027c-0.011-0.035-0.026-0.08-0.037-0.115
					c-0.215-0.191-0.288-0.428-0.288-0.428l0.002-0.012c-0.106,0.092-0.116,0.102-0.168,0.066c-0.027-0.027-0.053-0.055-0.079-0.078
					c0.039-0.008,0.076-0.016,0.113-0.023L10.825,2.07H10.818z"/>
			</defs>
			<clipPath id="SVGID_9_">
				<use xlink:href="#SVGID_8_"  overflow="visible"/>
			</clipPath>
			
				<radialGradient id="SVGID_10_" cx="958.9912" cy="339.5154" r="0.1172" gradientTransform="matrix(41.1366 0 0 -41.1366 -39441.5938 13974.208)" gradientUnits="userSpaceOnUse">
				<stop  offset="0" style="stop-color:#FFFFFF"/>
				<stop  offset="0.0209" style="stop-color:#FFFFFF"/>
				<stop  offset="0.4879" style="stop-color:#FFFFFF"/>
				<stop  offset="0.584" style="stop-color:#F8F7F6"/>
				<stop  offset="0.6914" style="stop-color:#EAE8E6"/>
				<stop  offset="0.8039" style="stop-color:#D5D3CE"/>
				<stop  offset="0.8146" style="stop-color:#D3D1CB"/>
				<stop  offset="1" style="stop-color:#9D9A97"/>
			</radialGradient>
			<rect x="4.105" y="2.07" clip-path="url(#SVGID_9_)" fill="url(#SVGID_10_)" width="7.824" height="11.102"/>
		</g>
	</g>
</g>
<g>
	<polygon fill="#424242" points="8.36,7.871 8.368,7.871 8.38,7.875 	"/>
	<polygon fill="#424242" points="10.838,9.838 10.819,9.834 10.804,9.834 	"/>
</g>
<g>
	<g>
		<g>
			<defs>
				<path id="SVGID_11_" d="M15.59,6.1c-0.02-0.098-0.046-0.221-0.088-0.344C15.534,5.877,15.565,5.996,15.59,6.1 M14.792,4.109
					c0.033,0.051,0.063,0.1,0.094,0.148l-0.008-0.016l0.003,0.004c-0.032-0.053-0.07-0.111-0.109-0.172
					C14.779,4.088,14.785,4.098,14.792,4.109 M12.479,3.859c-0.052,0.021-0.091,0.104-0.119,0.166l0.008,0.018l0.008,0.014
					l0.009,0.018l0.009,0.016l0.008,0.018l0.008,0.016l0.009,0.015l0.008,0.017l0.008,0.016l0.008,0.018l0.007,0.016l0.009,0.014
					l0.008,0.018l0.009,0.018l0.008,0.018l0.007,0.016c0.007-0.111,0.036-0.162,0.102-0.182l-0.111-0.232h-0.003V3.859z
					 M12.934,3.012c0.008,0.035,0.007,0.072,0.016,0.109l0.012,0.012c0.086,0.092,0.1,0.123,0.104,0.137
					c-0.004-0.014-0.045-0.123-0.127-0.256l-0.006-0.012L12.934,3.012z M13.054,4.008l0.005,0.123l-0.15,0.092
					C12.938,4.137,13.006,4.08,13.054,4.008 M11.694,1.637c0.498,0.199,0.498,0.199,0.556,0.236l0.038-0.01
					c0.104,0.049,0.171,0.084,0.325,0.176c-0.138-0.049-0.272-0.105-0.414-0.148C12.36,1.96,12.36,1.96,12.42,2.003
					c-0.017,0.006-0.038,0.014-0.055,0.02c0.046,0.021,0.104,0.047,0.15,0.064c0.1,0.1,0.179,0.215,0.276,0.313
					c0.069,0.074,0.163,0.174,0.228,0.252c-0.092-0.033-0.215-0.078-0.307-0.111l-0.05-0.043c0.052,0.004,0.119,0.01,0.17,0.016
					L12.719,2.41l-0.138-0.055c-0.087,0.053-0.097,0.051-0.366-0.045c-0.033,0.029-0.073,0.061-0.122,0.09
					c0.239,0.275,0.265,0.307,0.388,0.533C12.446,3.09,12.446,3.09,12.742,3.33c0.015-0.01,0.034-0.021,0.048-0.035
					c-0.024-0.084-0.024-0.084-0.114-0.205l0.016,0.016l0.028,0.027l0.028,0.025l0.027,0.027l0.026,0.027l0.026,0.025l0.025,0.027
					l0.026,0.025h0.052c0.052-0.145,0.052-0.145-0.287-0.59l0.097,0.008l0.166,0.232c0.039,0.006,0.093,0.006,0.13-0.006
					c0.047-0.031,0.058-0.043,0.067-0.052c0.295,0.567,0.295,0.567,0.297,0.7c-0.07-0.02-0.07-0.02-0.158-0.063
					c-0.008,0.033-0.021,0.076-0.031,0.107c-0.067-0.021-0.083-0.027-0.247-0.213c-0.008,0.059-0.008,0.059,0.148,0.244
					c-0.013,0.029-0.04,0.066-0.065,0.088c0,0.059,0.001,0.133,0.001,0.189c-0.204-0.074-0.204-0.074-0.317-0.141
					c-0.028-0.021-0.035-0.029-0.042-0.043l-0.02-0.025l-0.021-0.029L12.627,3.67l-0.02-0.022l-0.021-0.029l-0.021-0.029
					l-0.021-0.025c-0.029,0.018-0.067,0.049-0.092,0.074c0.012,0.043,0.029,0.115,0.29,0.285c0.001,0.066,0.006,0.154,0.007,0.223
					c0.026,0.021,0.059,0.057,0.083,0.082L12.821,4.27c0.091,0.012,0.091,0.012,0.355,0.416c-0.04,0.021-0.081,0.047-0.509,0.07
					c0.076,0.16,0.168,0.313,0.244,0.471l-0.04,0.039l0.008,0.021l0.008,0.021l0.008,0.021l0.008,0.021l0.006,0.021l0.008,0.021
					l0.007,0.021l0.007,0.021c0.388-0.137,0.403-0.143,0.6-0.229c-0.04-0.09-0.08-0.18-0.122-0.268
					c0.134-0.125,0.062-0.328,0.178-0.459c0.043-0.018,0.083-0.033,0.124-0.053c0.297,0.307,0.309,0.316,0.471,0.262
					c0.05,0.072,0.05,0.072,0.114,0.156c-0.05-0.096-0.082-0.156-0.277-0.428c-0.007,0.016-0.016,0.033-0.023,0.049
					c-0.057-0.018-0.057-0.018-0.148-0.092c0.012-0.012,0.028-0.031,0.04-0.047c0.115,0.018,0.115,0.018,0.7,0.49
					c0.027-0.195-0.161-0.293-0.204-0.455c0.056-0.08,0.051-0.09,0.026-0.145C14.325,4.1,14.265,3.967,14.191,3.84
					c0.033-0.002,0.077-0.002,0.11,0.002c0.001-0.018,0.002-0.039,0.003-0.055c-0.02-0.018-0.045-0.041-0.065-0.059l0.001-0.006
					l0.003-0.006l0.002-0.006l0.003-0.006L14.251,3.7l0.002-0.006l0.002-0.006l0.003-0.008c0.236,0.146,0.236,0.146,0.368,0.348
					c-0.073-0.031-0.083-0.043-0.127-0.098c-0.009,0.006-0.013,0.021-0.019,0.037c-0.027,0.174-0.028,0.18-0.019,0.428
					c0.028,0.041,0.054,0.084,0.081,0.125C14.6,4.586,14.6,4.586,14.739,4.698c-0.009-0.078-0.021-0.184-0.028-0.264
					c0.014-0.01,0.033-0.021,0.048-0.025c0.037,0.07,0.085,0.168,0.121,0.24c0.155,0.254,0.174,0.287,0.188,0.439L15.044,5.11
					c-0.002,0.002-0.002,0.002-0.354,0.146c0.005,0.08,0,0.111-0.042,0.244c-0.177-0.021-0.503-0.367-0.507-0.373
					C14,5.212,13.706,5.378,13.282,5.495l0.038,0.037c-0.002,0.016-0.003,0.039-0.004,0.055L13.301,5.6l-0.018,0.004l-0.017,0.004
					l-0.019,0.004L13.23,5.617l-0.02,0.004l-0.019,0.006l-0.019,0.002c-0.177,0.457-0.329,0.848-0.82,1.547l0.156,0.133
					c0.088,0.635,0.088,0.635-0.006,0.844c0.793,0.707,0.793,0.707,0.966,0.76c0.033-0.053,0.077-0.125,0.111-0.176
					c0.246-0.061,0.473-0.121,0.68-0.188c0.64-0.203,0.665-0.213,0.555,1.152c-0.038,0.135-0.082,0.268-0.129,0.396
					c-0.323,0.519-0.508,1.11-0.885,1.603c0.088-0.063,0.222-0.158,0.584-0.605c0.351-0.471,0.373-0.5,0.554-0.816
					c0.278-0.543,0.289-0.564,0.412-0.9c0.188-0.594,0.196-0.614,0.262-0.969c0.087-0.617,0.095-0.666,0.099-1.082
					c-0.01-0.264-0.032-0.615-0.062-0.877l-0.003-0.021c-0.001-0.006-0.176-0.678-0.29-0.918c0.004-0.016,0.006-0.027,0.01-0.043
					c0.059,0.092,0.102,0.191,0.135,0.296c-0.04-0.149-0.082-0.304-0.123-0.431c-0.224-0.569-0.233-0.594-0.4-0.904
					c-0.079-0.135-0.139-0.232-0.188-0.313c-0.047-0.074-0.096-0.148-0.146-0.221c-0.025-0.027-0.085-0.102-0.101-0.1L14.544,3.8
					c-0.095-0.125-0.095-0.125-0.24-0.355c0.08,0.094,0.106,0.133,0.122,0.158l-0.004-0.01C14.431,3.6,14.431,3.6,14.493,3.68
					l0.067,0.084c0.063,0.094,0.138,0.207,0.209,0.313c-0.126-0.209-0.178-0.277-0.334-0.479c-0.375-0.449-0.398-0.477-0.676-0.736
					c-0.341-0.293-0.61-0.523-1.122-0.82C12.343,1.873,12.027,1.736,11.694,1.637L11.694,1.637z"/>
			</defs>
			<clipPath id="SVGID_12_">
				<use xlink:href="#SVGID_11_"  overflow="visible"/>
			</clipPath>
			
				<radialGradient id="SVGID_13_" cx="944.0078" cy="335.2185" r="0.117" gradientTransform="matrix(32.8037 0 0 -32.8037 -30953.2051 11003.1279)" gradientUnits="userSpaceOnUse">
				<stop  offset="0" style="stop-color:#FFFFFF"/>
				<stop  offset="0.0209" style="stop-color:#FFFFFF"/>
				<stop  offset="0.4879" style="stop-color:#FFFFFF"/>
				<stop  offset="0.584" style="stop-color:#F8F7F6"/>
				<stop  offset="0.6914" style="stop-color:#EAE8E6"/>
				<stop  offset="0.8039" style="stop-color:#D5D3CE"/>
				<stop  offset="0.8146" style="stop-color:#D3D1CB"/>
				<stop  offset="1" style="stop-color:#9D9A97"/>
			</radialGradient>
			<rect x="11.694" y="1.637" clip-path="url(#SVGID_12_)" fill="url(#SVGID_13_)" width="4.018" height="10.061"/>
		</g>
	</g>
</g>
<g>
	<path fill="#FDFEFF" d="M9.447,5.613c0-0.029-0.005-0.057-0.002-0.082"/>
	<path fill="#FDFEFF" d="M9.833,1.283c0,0.01,0,0.02-0.002,0.029"/>
	<path fill="#BDBCBC" d="M6.038,12.051c0.038,0.006,0.06,0.021,0.049,0.063C6.055,12.104,6.034,12.086,6.038,12.051"/>
</g>
<g>
	<g>
		<g>
			<defs>
				<path id="SVGID_14_" d="M6.573,8.361C6.525,8.373,6.102,8.939,6.071,8.98c-0.479,0.604-0.754,1.361-0.578,2.131
					c0.048,0.207,0.113,0.426,0.202,0.619c0.166,0.359,0.416,0.678,0.729,0.926c0.173,0.135,0.36,0.254,0.55,0.365
					c0.135,0.08,0.273,0.152,0.418,0.215c-0.118-0.055-0.199-0.174-0.279-0.271c-0.079-0.1-0.149-0.209-0.215-0.316
					c-0.14-0.232-0.252-0.49-0.271-0.768c-0.027-0.383,0.114-0.752,0.327-1.063c0.123-0.184,0.267-0.352,0.416-0.51
					c0.104-0.109,0.513-0.475,0.609-0.592c2.363-2.51,8.165-2.609,8.165-2.609c0.068-1.938-0.686-2.654-0.686-2.654
					c-0.404-0.072-0.803-0.104-1.195-0.104C9.988,4.346,6.573,8.361,6.573,8.361"/>
			</defs>
			<clipPath id="SVGID_15_">
				<use xlink:href="#SVGID_14_"  overflow="visible"/>
			</clipPath>
			
				<linearGradient id="SVGID_16_" gradientUnits="userSpaceOnUse" x1="988.8818" y1="348.4607" x2="988.9966" y2="348.4607" gradientTransform="matrix(91.7154 0 0 -91.7154 -90690.1094 31968.0098)">
				<stop  offset="0" style="stop-color:#D4202E"/>
				<stop  offset="1" style="stop-color:#84152E"/>
			</linearGradient>
			<rect x="5.317" y="4.346" clip-path="url(#SVGID_15_)" fill="url(#SVGID_16_)" width="10.893" height="8.891"/>
		</g>
	</g>
</g>
<g>
	<g>
		<g>
			<defs>
				<path id="SVGID_17_" d="M12.251,2.215C7.301,2.447,3.749,6.559,3.37,7.121L3.306,7.084C3.278,7.057,3.238,7.047,3.2,7.057
					C3.164,7.064,3.132,7.092,3.119,7.129c0,0,0.086,1.311,0.127,1.291l1.122-0.48C4.404,7.924,4.43,7.891,4.436,7.854
					C4.443,7.816,4.43,7.777,4.403,7.75L4.259,7.701C4.72,7.14,5.784,6.191,6.342,5.738c0.771-0.623,1.627-1.145,2.529-1.555
					c0.661-0.305,1.394-0.596,2.096-0.77c0.147-0.035,0.297-0.066,0.446-0.1c0.515-0.104,0.549-0.201,1.567-0.254
					c0.599-0.029,1.344-0.078,1.543-0.131c0.05-0.109-0.554-0.585-0.816-0.783c-0.031-0.023-0.125-0.031-0.251-0.031
					C13.034,2.117,12.251,2.215,12.251,2.215"/>
			</defs>
			<clipPath id="SVGID_18_">
				<use xlink:href="#SVGID_17_"  overflow="visible"/>
			</clipPath>
			
				<linearGradient id="SVGID_19_" gradientUnits="userSpaceOnUse" x1="990.5303" y1="348.6257" x2="990.647" y2="348.6257" gradientTransform="matrix(97.7217 0 0 -97.7217 -96793.2578 34073.4883)">
				<stop  offset="0" style="stop-color:#FAAE1C"/>
				<stop  offset="1" style="stop-color:#F7912D"/>
			</linearGradient>
			<rect x="3.119" y="2.117" clip-path="url(#SVGID_18_)" fill="url(#SVGID_19_)" width="11.455" height="6.32"/>
		</g>
	</g>
</g>
<g>
	<g>
		<g>
			<defs>
				<path id="SVGID_20_" d="M14.382,8.107c-0.094,0.031-0.186,0.064-0.276,0.104c-0.084,0.035-0.197,0.07-0.269,0.127
					c0.076,0.039,0.181,0.053,0.264,0.072c0.09,0.023,0.181,0.047,0.271,0.068c0.164,0.041,0.33,0.072,0.496,0.107
					c0.141,0.031,0.496,0.08,0.375,0.309c-0.033,0.059-0.068,0.113-0.101,0.174c-0.1,0.188-0.2,0.377-0.3,0.564
					c-0.074,0.143-0.155,0.279-0.223,0.428c0.124,0.012,0.244,0.031,0.364,0.051c0.105,0.016,0.208,0.035,0.313,0.043
					c0.053,0.004,0.105,0.008,0.157,0.014c0.067,0.012,0.127,0.043,0.179-0.021c0.043-0.051,0.06-0.125,0.092-0.186
					c0.044-0.08,0.084-0.159,0.121-0.24c0.125-0.279,0.219-0.574,0.305-0.865c0.049-0.164,0.152-0.385,0.073-0.557
					C16.16,8.165,15.984,8.1,15.856,8.046c-0.146-0.057-0.294-0.088-0.45-0.104c-0.048-0.004-0.096-0.006-0.146-0.006
					C14.963,7.939,14.661,8.016,14.382,8.107"/>
			</defs>
			<clipPath id="SVGID_21_">
				<use xlink:href="#SVGID_20_"  overflow="visible"/>
			</clipPath>
			
				<linearGradient id="SVGID_22_" gradientUnits="userSpaceOnUse" x1="903.6465" y1="324.1902" x2="903.7632" y2="324.1902" gradientTransform="matrix(20.6811 0 0 -20.6811 -18674.5625 6713.668)">
				<stop  offset="0" style="stop-color:#FAAE1C"/>
				<stop  offset="1" style="stop-color:#F7912D"/>
			</linearGradient>
			<rect x="13.837" y="7.939" clip-path="url(#SVGID_21_)" fill="url(#SVGID_22_)" width="2.464" height="2.271"/>
		</g>
	</g>
</g>
<g>
	<g>
		<g>
			<defs>
				<path id="SVGID_23_" d="M4.096,4.336c3.132-3.527,6.619-3.395,6.619-3.395c-0.342-0.039-0.668-0.061-0.98-0.061
					C5.487,0.885,4.096,4.336,4.096,4.336"/>
			</defs>
			<clipPath id="SVGID_24_">
				<use xlink:href="#SVGID_23_"  overflow="visible"/>
			</clipPath>
			
				<linearGradient id="SVGID_25_" gradientUnits="userSpaceOnUse" x1="974.292" y1="343.2605" x2="974.4087" y2="343.2605" gradientTransform="matrix(56.7038 0 0 -56.7038 -55242.0195 19466.707)">
				<stop  offset="0" style="stop-color:#D4202E"/>
				<stop  offset="1" style="stop-color:#84152E"/>
			</linearGradient>
			<rect x="4.096" y="0.807" clip-path="url(#SVGID_24_)" fill="url(#SVGID_25_)" width="6.619" height="3.527"/>
		</g>
	</g>
</g>
<g>
	<g>
		<g>
			<defs>
				<path id="SVGID_26_" d="M12.17,8.613c-0.024,0.055-0.02,0.119,0.013,0.168l0.041,0.109c0.012,0.043,0.018,0.098,0.019,0.156
					c-0.074,0.119-0.213,0.207-0.319,0.283c-0.414,0.299-0.809,0.627-1.217,0.938c-0.272,0.205-0.542,0.418-0.813,0.625l1.146,0.637
					c0.15-0.229,1.442-0.881,1.813-1.066l0.035,0.188c0.032,0.051,0.088,0.08,0.149,0.08c0.06,0.002,0.116-0.027,0.149-0.078
					l1.056-1.576c0.041-0.063-1.939-0.566-1.939-0.566C12.245,8.52,12.195,8.559,12.17,8.613"/>
			</defs>
			<clipPath id="SVGID_27_">
				<use xlink:href="#SVGID_26_"  overflow="visible"/>
			</clipPath>
			
				<linearGradient id="SVGID_28_" gradientUnits="userSpaceOnUse" x1="953.0039" y1="338.3406" x2="953.1226" y2="338.3406" gradientTransform="matrix(37.2531 0 0 -37.2531 -35492.4922 12614.2041)">
				<stop  offset="0" style="stop-color:#FAAE1C"/>
				<stop  offset="1" style="stop-color:#F7912D"/>
			</linearGradient>
			<rect x="9.895" y="8.51" clip-path="url(#SVGID_27_)" fill="url(#SVGID_28_)" width="4.389" height="3.021"/>
		</g>
	</g>
</g>
<g>
	<g>
		<g>
			<defs>
				<path id="SVGID_29_" d="M8.436,12.818c0,0.236,0.042,0.504,0.231,0.65c0.224,0.176,0.329,0.213,0.572,0.303
					c0.048,0.018,0.228,0.084,0.276,0.039c0.044-0.041-0.013-0.107-0.037-0.146c-0.063-0.092-0.116-0.201-0.115-0.313
					c0.002-0.119,0.065-0.23,0.113-0.336c0.05-0.111,0.126-0.205,0.196-0.305c0.106-0.15,0.227-0.285,0.358-0.412
					c0.179-0.174,0.37-0.33,0.57-0.477c0.009-0.004,0.122-0.098,0.128-0.094c-0.001-0.002-1.177-0.588-1.177-0.588
					S8.436,12.127,8.436,12.818"/>
			</defs>
			<clipPath id="SVGID_30_">
				<use xlink:href="#SVGID_29_"  overflow="visible"/>
			</clipPath>
			
				<linearGradient id="SVGID_31_" gradientUnits="userSpaceOnUse" x1="899.9512" y1="323.8308" x2="900.0679" y2="323.8308" gradientTransform="matrix(19.6453 0 0 -19.6453 -17671.3965 6374.2617)">
				<stop  offset="0" style="stop-color:#FAAE1C"/>
				<stop  offset="1" style="stop-color:#F7912D"/>
			</linearGradient>
			<rect x="8.436" y="11.143" clip-path="url(#SVGID_30_)" fill="url(#SVGID_31_)" width="2.293" height="2.713"/>
		</g>
	</g>
</g>
<g>
	<g>
		<path fill="#777777" d="M14.528,12.369c0.203-0.129,0.401-0.262,0.593-0.406c0.386-0.289,0.74-0.611,1.069-0.965
			c0.341-0.365,0.682-0.746,1-1.145c0.289-0.365,0.558-0.74,0.79-1.135c0.514-0.861,1.204-2.205,0.448-3.117
			c-0.291-0.354-0.66-0.607-1.078-0.785c-0.205-0.086-0.427-0.156-0.646-0.199c-0.225-0.043-0.803-0.127-0.979,0.025
			c0.134-0.082,1.145,0.271,1.287,0.344c0.29,0.148,0.561,0.346,0.772,0.598c1.006,1.195,0.002,2.867-0.818,3.844
			c-0.39,0.467-0.827,0.881-1.276,1.287c-0.338,0.305-0.695,0.584-1.063,0.854c-0.055,0.039-0.137,0.104-0.208,0.148
			c-0.362,0.242-0.726,0.48-1.09,0.721c-0.24,0.154-0.561-0.043-0.774-0.158c-0.456-0.244-0.936-0.439-1.393-0.686
			c-0.487-0.256-0.962-0.531-1.434-0.813c-0.256-0.156-0.511-0.314-0.765-0.473c-1.052-0.65-2.059-1.359-3.016-2.145
			C5.67,7.937,5.397,7.703,5.128,7.467C4.271,6.713,3.456,5.904,2.726,5.02c-0.31-0.375-0.598-0.78-0.861-1.19
			C1.456,3.193,0.979,2.379,1.022,1.59C1.055,1,1.59,0.633,2.147,0.564C2.785,0.482,3.443,0.57,4.064,0.721
			c0.32,0.076,0.71,0.076,0.973,0.303c0.042,0.037,0.071,0.074,0.092,0.113C5.127,1.158,5.125,1.18,5.125,1.201
			c0,0.402,0.325,0.727,0.726,0.727s0.726-0.322,0.726-0.727c0-0.4-0.324-0.725-0.726-0.725c-0.251,0-0.473,0.127-0.603,0.32
			C5.23,0.807,5.212,0.813,5.194,0.816c-0.21,0.039-0.428-0.104-0.622-0.168C3.566,0.314,2.561-0.023,1.479,0
			C1.052,0.01,0.497,0.189,0.325,0.613C0.103,1.164,0.383,1.855,0.607,2.359C1.138,3.557,1.89,4.623,2.742,5.615
			C2.975,5.887,3.207,6.164,3.458,6.42C3.59,6.552,3.722,6.686,3.852,6.818C4.182,7.125,4.51,7.432,4.84,7.74
			c0.449,0.373,0.897,0.746,1.346,1.119c0.368,0.268,0.728,0.547,1.09,0.822c0.418,0.314,0.866,0.594,1.315,0.861
			c0.432,0.264,0.854,0.545,1.299,0.781c0.93,0.498,1.88,1.008,2.869,1.383c-0.018,0.031-3.625,1.736-5.638,1.848
			c-0.937,0.049-1.872-0.02-2.771-0.332c-1.17-0.412-1.657-1.238-1.409-2.449c0.154-0.748,0.389-1.336,0.866-1.938
			C3.75,9.732,3.691,9.523,3.625,9.361c-0.349,0.291-0.623,0.633-0.893,1.004c-0.567,0.783-0.874,1.645-0.679,2.613
			c0.225,1.121,0.984,1.775,2.022,2.141c1.095,0.383,2.217,0.326,3.34,0.152c1.782-0.271,3.496-0.887,5.092-1.713
			c0.576-0.301,0.922-0.592,1.582-0.365c0.676,0.229,1.4,0.396,2.119,0.346c0.61-0.043,1.059-0.367,1.396-0.861
			c0.283-0.414,0.234-1.305-0.063-1.586c-0.067,0.043-0.002,0.08,0.008,0.115c0.299,1.047-0.121,1.713-1.203,1.904
			c-0.599,0.104-1.809-0.076-2.425-0.373C13.986,12.768,14.455,12.416,14.528,12.369"/>
	</g>
</g>
<g>
	<g>
		<g>
			<path fill="#777777" d="M24.217,12.869V2.945h3.477c1.205,0,2.118,0.229,2.74,0.689c0.623,0.463,0.934,1.139,0.934,2.027
				c0,0.486-0.125,0.914-0.375,1.285S30.396,7.59,29.95,7.76c0.509,0.128,0.911,0.386,1.204,0.771c0.293,0.387,0.44,0.859,0.44,1.42
				c0,0.953-0.305,1.676-0.914,2.168c-0.609,0.488-1.478,0.74-2.604,0.748L24.217,12.869L24.217,12.869z M26.263,7.102h1.513
				c1.031-0.02,1.547-0.43,1.547-1.234c0-0.449-0.13-0.773-0.392-0.971C28.67,4.699,28.258,4.6,27.694,4.6h-1.431V7.102z
				 M26.263,8.547v2.68h1.751c0.482,0,0.858-0.113,1.128-0.344c0.27-0.229,0.405-0.547,0.405-0.949c0-0.908-0.47-1.371-1.411-1.387
				H26.263z"/>
			<path fill="#777777" d="M32.984,3.584c0-0.295,0.098-0.537,0.296-0.729c0.197-0.191,0.467-0.287,0.808-0.287
				c0.336,0,0.604,0.096,0.804,0.287c0.2,0.189,0.3,0.434,0.3,0.729c0,0.301-0.101,0.547-0.303,0.736
				c-0.202,0.189-0.47,0.287-0.801,0.287s-0.598-0.095-0.8-0.287C33.084,4.131,32.984,3.885,32.984,3.584z M35.077,12.869H33.1
				V5.492h1.977V12.869z"/>
			<path fill="#777777" d="M38.963,11.281h3.606v1.588h-6.122V11.67l3.47-4.588H36.55v-1.59h5.91v1.162L38.963,11.281z"/>
			<path fill="#777777" d="M46.066,11.281h3.606v1.588H43.55V11.67l3.47-4.588h-3.368v-1.59h5.91v1.162L46.066,11.281z"/>
			<path fill="#777777" d="M62.243,10.006l1.335-7.061h2.039l-2.202,9.924h-2.059L59.741,6.23l-1.615,6.639h-2.059l-2.201-9.924
				h2.037l1.343,7.047l1.636-7.047h1.732L62.243,10.006z"/>
			<path fill="#777777" d="M66.074,9.113c0-0.732,0.141-1.385,0.423-1.957c0.281-0.572,0.688-1.014,1.218-1.328
				c0.528-0.313,1.144-0.471,1.843-0.471c0.996,0,1.809,0.305,2.438,0.912c0.629,0.609,0.98,1.436,1.053,2.48l0.013,0.504
				c0,1.135-0.315,2.041-0.947,2.727c-0.632,0.684-1.479,1.023-2.543,1.023c-1.064,0-1.912-0.342-2.546-1.021
				c-0.634-0.686-0.951-1.609-0.951-2.783L66.074,9.113L66.074,9.113z M68.044,9.254c0,0.701,0.131,1.236,0.395,1.607
				s0.641,0.557,1.131,0.557c0.478,0,0.851-0.184,1.118-0.551c0.268-0.365,0.402-0.951,0.402-1.758c0-0.688-0.134-1.219-0.402-1.6
				c-0.268-0.377-0.646-0.564-1.132-0.564c-0.482,0-0.854,0.188-1.118,0.563C68.176,7.885,68.044,8.465,68.044,9.254z"/>
			<path fill="#777777" d="M78.42,7.342c-0.269-0.035-0.504-0.055-0.709-0.055c-0.746,0-1.233,0.252-1.465,0.756v4.826h-1.97V5.492
				h1.861l0.055,0.881c0.395-0.678,0.942-1.016,1.642-1.016c0.218,0,0.423,0.027,0.614,0.088L78.42,7.342z"/>
			<path fill="#777777" d="M81.446,12.869H79.47V2.398h1.979v10.471H81.446z"/>
			<path fill="#777777" d="M82.762,9.127c0-1.148,0.257-2.064,0.773-2.748c0.517-0.682,1.222-1.021,2.118-1.021
				c0.718,0,1.311,0.268,1.779,0.805V2.398h1.977v10.471H87.63l-0.096-0.783c-0.491,0.613-1.122,0.92-1.895,0.92
				c-0.868,0-1.564-0.342-2.089-1.023C83.025,11.297,82.762,10.344,82.762,9.127z M84.732,9.273c0,0.691,0.121,1.223,0.361,1.592
				c0.241,0.369,0.591,0.553,1.05,0.553c0.609,0,1.039-0.258,1.289-0.771V7.732c-0.246-0.52-0.67-0.773-1.275-0.773
				C85.208,6.959,84.732,7.732,84.732,9.273z"/>
			<path fill="#777777" d="M102.334,9.563c-0.077,1.066-0.473,1.91-1.182,2.521c-0.712,0.613-1.649,0.92-2.813,0.92
				c-1.272,0-2.272-0.428-3.002-1.283c-0.73-0.857-1.094-2.033-1.094-3.527V7.586c0-0.955,0.168-1.795,0.504-2.521
				c0.336-0.729,0.817-1.285,1.442-1.674c0.625-0.391,1.352-0.584,2.179-0.584c1.145,0,2.067,0.309,2.767,0.922
				c0.7,0.611,1.105,1.475,1.215,2.582h-2.044c-0.05-0.643-0.229-1.104-0.535-1.395s-0.774-0.434-1.4-0.434
				c-0.682,0-1.192,0.244-1.53,0.732c-0.339,0.486-0.513,1.246-0.522,2.271v0.75c0,1.072,0.163,1.856,0.488,2.352
				c0.325,0.498,0.837,0.742,1.537,0.742c0.633,0,1.104-0.143,1.415-0.432s0.49-0.734,0.535-1.34h2.042L102.334,9.563L102.334,9.563
				z"/>
			<path fill="#777777" d="M103.241,9.113c0-0.732,0.141-1.385,0.423-1.957c0.281-0.572,0.688-1.014,1.216-1.328
				c0.529-0.313,1.146-0.471,1.845-0.471c0.996,0,1.809,0.305,2.438,0.912c0.63,0.609,0.98,1.436,1.055,2.48l0.014,0.504
				c0,1.135-0.315,2.041-0.945,2.727c-0.635,0.684-1.48,1.023-2.544,1.023c-1.064,0-1.913-0.342-2.546-1.021
				c-0.635-0.686-0.951-1.609-0.951-2.783L103.241,9.113L103.241,9.113z M105.211,9.254c0,0.701,0.132,1.236,0.395,1.607
				c0.266,0.371,0.643,0.557,1.134,0.557c0.477,0,0.849-0.184,1.116-0.551c0.271-0.365,0.402-0.951,0.402-1.758
				c0-0.688-0.133-1.219-0.402-1.6c-0.269-0.377-0.646-0.564-1.131-0.564c-0.48,0-0.854,0.188-1.119,0.563
				C105.343,7.885,105.211,8.465,105.211,9.254z"/>
			<path fill="#777777" d="M113.289,5.492l0.061,0.826c0.522-0.643,1.229-0.961,2.12-0.961c0.949,0,1.604,0.375,1.956,1.123
				c0.518-0.748,1.258-1.123,2.217-1.123c0.799,0,1.396,0.23,1.787,0.699c0.389,0.465,0.586,1.166,0.586,2.102v4.711h-1.979V8.166
				c0-0.418-0.082-0.725-0.246-0.916s-0.451-0.291-0.865-0.291c-0.591,0-1,0.281-1.228,0.848l0.007,5.063h-1.971V8.172
				c0-0.426-0.084-0.734-0.252-0.928c-0.168-0.188-0.455-0.285-0.858-0.285c-0.56,0-0.963,0.232-1.213,0.695v5.215h-1.972V5.492
				H113.289z"/>
			<path fill="#777777" d="M125.375,5.492l0.061,0.826c0.523-0.643,1.23-0.961,2.121-0.961c0.949,0,1.603,0.375,1.957,1.123
				c0.519-0.748,1.256-1.123,2.215-1.123c0.799,0,1.396,0.23,1.785,0.699c0.393,0.465,0.586,1.166,0.586,2.102v4.711h-1.977V8.166
				c0-0.418-0.08-0.725-0.244-0.916c-0.165-0.191-0.453-0.291-0.865-0.291c-0.592,0-1,0.281-1.228,0.848l0.007,5.063h-1.971V8.172
				c0-0.426-0.084-0.734-0.252-0.928c-0.168-0.188-0.455-0.285-0.859-0.285c-0.559,0-0.963,0.232-1.213,0.695v5.215h-1.971V5.492
				H125.375z"/>
			<path fill="#777777" d="M140.032,12.121c-0.486,0.59-1.159,0.885-2.019,0.885c-0.791,0-1.395-0.227-1.811-0.682
				s-0.628-1.119-0.639-1.998V5.492h1.971v4.771c0,0.77,0.35,1.152,1.05,1.152c0.667,0,1.126-0.23,1.376-0.693v-5.23h1.979v7.377
				h-1.854L140.032,12.121z"/>
			<path fill="#777777" d="M145.24,5.492l0.062,0.854c0.527-0.658,1.233-0.988,2.12-0.988c0.782,0,1.363,0.229,1.745,0.688
				s0.577,1.146,0.587,2.063v4.764h-1.971v-4.72c0-0.418-0.09-0.721-0.272-0.91c-0.182-0.189-0.483-0.283-0.907-0.283
				c-0.554,0-0.97,0.236-1.246,0.709v5.201h-1.971V5.492H145.24z"/>
			<path fill="#777777" d="M151.232,3.584c0-0.295,0.098-0.537,0.297-0.729c0.197-0.191,0.466-0.287,0.807-0.287
				c0.337,0,0.604,0.096,0.805,0.287c0.201,0.189,0.301,0.434,0.301,0.729c0,0.301-0.103,0.547-0.303,0.736
				c-0.203,0.189-0.471,0.287-0.803,0.287s-0.6-0.098-0.8-0.287C151.333,4.131,151.232,3.885,151.232,3.584z M153.325,12.869h-1.978
				V5.492h1.978V12.869z"/>
			<path fill="#777777" d="M158.016,11.418c0.363,0,0.659-0.1,0.885-0.301c0.229-0.199,0.348-0.467,0.354-0.799h1.847
				c-0.004,0.502-0.14,0.959-0.408,1.375c-0.268,0.416-0.635,0.74-1.102,0.969c-0.466,0.229-0.98,0.344-1.544,0.344
				c-1.054,0-1.886-0.336-2.495-1.006s-0.912-1.596-0.912-2.775V9.094c0-1.137,0.301-2.043,0.905-2.721s1.435-1.016,2.488-1.016
				c0.922,0,1.663,0.262,2.219,0.787c0.558,0.521,0.84,1.223,0.849,2.096h-1.848c-0.009-0.383-0.127-0.695-0.354-0.936
				c-0.229-0.24-0.527-0.359-0.898-0.359c-0.459,0-0.807,0.168-1.04,0.502s-0.353,0.877-0.353,1.629v0.205
				c0,0.76,0.117,1.307,0.349,1.639S157.543,11.418,158.016,11.418z"/>
			<path fill="#777777" d="M166.502,12.869c-0.09-0.176-0.156-0.396-0.197-0.662c-0.477,0.531-1.098,0.799-1.861,0.799
				c-0.723,0-1.32-0.209-1.797-0.627c-0.475-0.418-0.711-0.943-0.711-1.582c0-0.779,0.289-1.381,0.869-1.799
				c0.579-0.42,1.416-0.631,2.512-0.635h0.906V7.941c0-0.342-0.088-0.615-0.262-0.818c-0.176-0.205-0.452-0.307-0.829-0.307
				c-0.332,0-0.593,0.078-0.78,0.238c-0.188,0.156-0.283,0.377-0.283,0.652h-1.971c0-0.426,0.133-0.822,0.396-1.186
				c0.264-0.365,0.636-0.65,1.117-0.855c0.482-0.207,1.022-0.311,1.623-0.311c0.908,0,1.632,0.229,2.164,0.684
				c0.535,0.457,0.803,1.102,0.803,1.928v3.195c0.005,0.701,0.102,1.23,0.292,1.59v0.115L166.502,12.869L166.502,12.869z
				 M164.873,11.5c0.291,0,0.561-0.064,0.805-0.197c0.246-0.127,0.426-0.301,0.545-0.52V9.516h-0.736
				c-0.984,0-1.51,0.342-1.573,1.021l-0.006,0.117c0,0.246,0.085,0.447,0.258,0.605C164.338,11.419,164.573,11.5,164.873,11.5z"/>
			<path fill="#777777" d="M172.07,3.68v1.813h1.263V6.94h-1.263v3.682c0,0.271,0.054,0.469,0.158,0.584
				c0.104,0.119,0.306,0.178,0.601,0.178c0.218,0,0.411-0.016,0.58-0.049v1.494c-0.388,0.117-0.785,0.178-1.193,0.178
				c-1.382,0-2.086-0.695-2.112-2.092V6.939h-1.078V5.492h1.078V3.68H172.07z"/>
			<path fill="#777777" d="M174.417,3.584c0-0.295,0.099-0.537,0.297-0.729c0.198-0.192,0.468-0.287,0.808-0.287
				c0.336,0,0.605,0.096,0.806,0.287c0.198,0.189,0.3,0.434,0.3,0.729c0,0.301-0.102,0.547-0.304,0.736s-0.47,0.287-0.802,0.287
				s-0.6-0.098-0.801-0.287C174.518,4.131,174.417,3.885,174.417,3.584z M176.51,12.869h-1.977V5.492h1.977V12.869z"/>
			<path fill="#777777" d="M177.825,9.113c0-0.732,0.141-1.385,0.423-1.957c0.281-0.572,0.688-1.014,1.217-1.328
				c0.529-0.313,1.145-0.471,1.844-0.471c0.996,0,1.809,0.305,2.438,0.912c0.63,0.609,0.979,1.436,1.053,2.48l0.015,0.504
				c0,1.135-0.315,2.041-0.946,2.727c-0.632,0.684-1.479,1.023-2.543,1.023c-1.064,0-1.913-0.342-2.546-1.021
				c-0.635-0.686-0.952-1.609-0.952-2.783V9.113H177.825z M179.796,9.254c0,0.701,0.13,1.236,0.396,1.607
				c0.264,0.371,0.642,0.557,1.132,0.557c0.477,0,0.85-0.184,1.116-0.551c0.27-0.365,0.402-0.951,0.402-1.758
				c0-0.688-0.134-1.219-0.402-1.6c-0.269-0.377-0.646-0.564-1.131-0.564c-0.48,0-0.854,0.188-1.117,0.563
				C179.927,7.885,179.796,8.465,179.796,9.254z"/>
			<path fill="#777777" d="M187.84,5.492l0.061,0.854c0.527-0.658,1.233-0.988,2.121-0.988c0.781,0,1.362,0.229,1.744,0.688
				c0.381,0.459,0.577,1.146,0.588,2.063v4.764h-1.972v-4.72c0-0.418-0.091-0.721-0.272-0.91c-0.18-0.189-0.482-0.283-0.905-0.283
				c-0.556,0-0.972,0.236-1.247,0.709v5.201h-1.971V5.492H187.84z"/>
			<path fill="#777777" d="M197.84,10.83c0-0.24-0.12-0.428-0.357-0.566c-0.237-0.141-0.623-0.266-1.148-0.371
				c-1.754-0.369-2.631-1.113-2.631-2.236c0-0.654,0.271-1.201,0.813-1.639c0.543-0.439,1.254-0.658,2.131-0.658
				c0.938,0,1.687,0.221,2.246,0.66c0.563,0.439,0.842,1.016,0.842,1.719h-1.971c0-0.281-0.091-0.514-0.271-0.699
				c-0.184-0.184-0.467-0.273-0.854-0.273c-0.332,0-0.589,0.072-0.771,0.225c-0.181,0.15-0.271,0.34-0.271,0.572
				c0,0.219,0.102,0.395,0.31,0.527c0.206,0.135,0.555,0.25,1.046,0.35c0.492,0.098,0.904,0.207,1.24,0.33
				c1.041,0.381,1.563,1.043,1.563,1.98c0,0.676-0.289,1.217-0.865,1.635c-0.578,0.416-1.322,0.623-2.235,0.623
				c-0.619,0-1.166-0.109-1.646-0.33c-0.479-0.221-0.854-0.521-1.128-0.906c-0.271-0.384-0.408-0.797-0.408-1.244h1.867
				c0.02,0.352,0.147,0.619,0.391,0.807c0.24,0.188,0.563,0.277,0.969,0.277c0.376,0,0.662-0.07,0.854-0.213
				C197.743,11.25,197.84,11.063,197.84,10.83z"/>
		</g>
	</g>
</g>
</svg>
