<?xml version="1.0" encoding="utf-8"?>
<!-- Generator: Adobe Illustrator 23.0.5, SVG Export Plug-In . SVG Version: 6.00 Build 0)  -->
<svg version="1.1" id="Layer_1" xmlns="http://www.w3.org/2000/svg" xmlns:xlink="http://www.w3.org/1999/xlink" x="0px" y="0px"
	 viewBox="0 0 250 24.2" style="enable-background:new 0 0 250 24.2;" xml:space="preserve">
<style type="text/css">
	.st0{fill:#FFFFFF;}
	.st1{fill:#40C4F1;}
</style>
<g>
	<g>
		<path d="M16.9,10.2c-1.4,0.5-2.9,1.1-4.3,1.7l-2.3-6.8l-3.2,9.7c-2.6,1.7-5.1,3.7-7.1,6.1L6.8,2.1C6.8,2.1,7.5,0,9,0s4,0,4,0
			L16.9,10.2z"/>
		<path d="M21.9,23.3h-5.5l-2.1-6.3c1.3-0.6,2.8-1.3,4.4-1.9L21.9,23.3z"/>
		<path d="M24.5,8.1c-1.6,0.4-3.2,0.8-4.9,1.3v-8c0-0.7,0.5-1.2,1.2-1.2h3.7V8.1z"/>
		<path d="M38.3,1.3v4.9c-1.3,0.1-3,0.2-4.9,0.4V0.1h3.7C37.8,0.1,38.3,0.6,38.3,1.3z"/>
		<path d="M33.4,10.9c1.6-0.3,3.2-0.7,4.9-1v5.7c0,4.7-3.8,8.5-8.5,8.5h-1.7c-2.4,0-4.5-1-6.1-2.5l-2.5-6.5v-0.3
			c1.5-0.6,3.1-1.1,4.9-1.7v3.2c0,2.1,1.8,3.9,3.9,3.9h1.2c2.1,0,3.9-1.8,3.9-3.9V10.9z"/>
		<path class="st1" d="M0.1,23.3h2.7c0,0,6.9-10.7,38.7-15.6C41.6,7.8,12.1,7.3,0.1,23.3z"/>
	</g>
	<g>
		<g>
			<g>
				<g>
					<path d="M213.3,23.9h-10.4c-0.4,0-0.7-0.3-0.7-0.7c0-0.4,0.3-0.7,0.7-0.7h10.4c0.4,0,0.7,0.3,0.7,0.7
						C214,23.7,213.7,23.9,213.3,23.9z"/>
				</g>
				<g>
					<path d="M202.9,23.9c-0.4,0-0.7-0.3-0.7-0.7V0.9c0-0.4,0.3-0.7,0.7-0.7c0.4,0,0.7,0.3,0.7,0.7v22.4
						C203.6,23.7,203.3,23.9,202.9,23.9z"/>
				</g>
			</g>
			<g>
				<g>
					<path d="M228.4,23.9H218c-0.4,0-0.7-0.3-0.7-0.7c0-0.4,0.3-0.7,0.7-0.7h10.4c0.4,0,0.7,0.3,0.7,0.7
						C229.1,23.7,228.8,23.9,228.4,23.9z"/>
				</g>
				<g>
					<path d="M218,23.9c-0.4,0-0.7-0.3-0.7-0.7V0.9c0-0.4,0.3-0.7,0.7-0.7s0.7,0.3,0.7,0.7v22.4C218.7,23.7,218.4,23.9,218,23.9z"/>
				</g>
			</g>
			<g>
				<path d="M239.6,23.9c-6.5,0-11.9-5.3-11.9-11.9s5.3-11.9,11.9-11.9c4.2,0,8.2,2.3,10.3,5.9c0.2,0.3,0.1,0.7-0.2,0.9
					c-0.3,0.2-0.7,0.1-0.9-0.2c-1.9-3.3-5.4-5.3-9.1-5.3c-5.8,0-10.5,4.7-10.5,10.5s4.7,10.5,10.5,10.5c3.7,0,7.2-2,9-5.2
					c0.2-0.3,0.6-0.4,0.9-0.2c0.3,0.2,0.4,0.6,0.2,0.9C247.7,21.7,243.8,23.9,239.6,23.9z"/>
			</g>
		</g>
		<g>
			<g>
				<g>
					<path d="M66.6,1.6H55.4c-0.4,0-0.7-0.3-0.7-0.7s0.3-0.7,0.7-0.7h11.2c0.4,0,0.7,0.3,0.7,0.7S67,1.6,66.6,1.6z"/>
				</g>
				<g>
					<path d="M61,23.9c-0.4,0-0.7-0.3-0.7-0.7V0.9c0-0.4,0.3-0.7,0.7-0.7s0.7,0.3,0.7,0.7v22.4C61.7,23.7,61.4,23.9,61,23.9z"/>
				</g>
			</g>
			<g>
				<g>
					<path d="M81.7,1.6H71.3c-0.4,0-0.7-0.3-0.7-0.7s0.3-0.7,0.7-0.7h10.4c0.4,0,0.7,0.3,0.7,0.7S82,1.6,81.7,1.6z"/>
				</g>
				<g>
					<path d="M81.7,12.8H71.3c-0.4,0-0.7-0.3-0.7-0.7c0-0.4,0.3-0.7,0.7-0.7h10.4c0.4,0,0.7,0.3,0.7,0.7
						C82.3,12.5,82,12.8,81.7,12.8z"/>
				</g>
				<g>
					<path d="M81.7,23.9H71.3c-0.4,0-0.7-0.3-0.7-0.7c0-0.4,0.3-0.7,0.7-0.7h10.4c0.4,0,0.7,0.3,0.7,0.7
						C82.3,23.7,82,23.9,81.7,23.9z"/>
				</g>
				<g>
					<path d="M71.3,23.9c-0.4,0-0.7-0.3-0.7-0.7V0.9c0-0.4,0.3-0.7,0.7-0.7c0.4,0,0.7,0.3,0.7,0.7v22.4
						C71.9,23.7,71.7,23.9,71.3,23.9z"/>
				</g>
			</g>
			<g>
				<g>
					<path d="M111.9,1.6h-10.4c-0.4,0-0.7-0.3-0.7-0.7s0.3-0.7,0.7-0.7h10.4c0.4,0,0.7,0.3,0.7,0.7S112.2,1.6,111.9,1.6z"/>
				</g>
				<g>
					<path d="M111.9,12.8h-10.4c-0.4,0-0.7-0.3-0.7-0.7c0-0.4,0.3-0.7,0.7-0.7h10.4c0.4,0,0.7,0.3,0.7,0.7
						C112.5,12.5,112.2,12.8,111.9,12.8z"/>
				</g>
				<g>
					<path d="M111.9,23.9h-10.4c-0.4,0-0.7-0.3-0.7-0.7c0-0.4,0.3-0.7,0.7-0.7h10.4c0.4,0,0.7,0.3,0.7,0.7
						C112.5,23.7,112.2,23.9,111.9,23.9z"/>
				</g>
				<g>
					<path d="M101.5,23.9c-0.4,0-0.7-0.3-0.7-0.7V0.9c0-0.4,0.3-0.7,0.7-0.7c0.4,0,0.7,0.3,0.7,0.7v22.4
						C102.1,23.7,101.8,23.9,101.5,23.9z"/>
				</g>
			</g>
			<g>
				<g>
					<path d="M96.8,23.9H86.4c-0.4,0-0.7-0.3-0.7-0.7c0-0.4,0.3-0.7,0.7-0.7h10.4c0.4,0,0.7,0.3,0.7,0.7
						C97.4,23.7,97.1,23.9,96.8,23.9z"/>
				</g>
				<g>
					<path d="M86.4,23.9c-0.4,0-0.7-0.3-0.7-0.7V0.9c0-0.4,0.3-0.7,0.7-0.7c0.4,0,0.7,0.3,0.7,0.7v22.4C87,23.7,86.7,23.9,86.4,23.9
						z"/>
				</g>
			</g>
			<g>
				<path d="M152,2.2c5.4,0,9.9,4.4,9.9,9.9s-4.4,9.9-9.9,9.9c-5.4,0-9.9-4.4-9.9-9.9S146.6,2.2,152,2.2 M152,0.9
					c-6.2,0-11.2,5-11.2,11.2s5,11.2,11.2,11.2c6.2,0,11.2-5,11.2-11.2S158.2,0.9,152,0.9L152,0.9z"/>
			</g>
			<g>
				<g>
					<path d="M127.7,23.9c-6.5,0-11.9-5.3-11.9-11.9s5.3-11.9,11.9-11.9c4.2,0,8.2,2.3,10.3,5.9c0.2,0.3,0.1,0.7-0.2,0.9
						s-0.7,0.1-0.9-0.2c-1.9-3.3-5.4-5.3-9.1-5.3c-5.8,0-10.5,4.7-10.5,10.5s4.7,10.5,10.5,10.5c3.7,0,7.2-2,9-5.2
						c0.2-0.3,0.6-0.4,0.9-0.2c0.3,0.2,0.4,0.6,0.2,0.9C135.8,21.7,131.9,23.9,127.7,23.9z"/>
				</g>
			</g>
			<g>
				<g>
					<path d="M166.4,23.9C166.4,23.9,166.4,23.9,166.4,23.9c-0.5-0.1-0.7-0.4-0.7-0.8l3-22.4c0-0.4,0.4-0.6,0.8-0.6
						c0.4,0,0.6,0.4,0.6,0.8l-3,22.4C167,23.7,166.8,23.9,166.4,23.9z"/>
				</g>
				<g>
					<path d="M177.2,23.9c-0.3,0-0.5-0.2-0.6-0.4l-7.8-22.4c-0.1-0.3,0.1-0.7,0.4-0.8c0.3-0.1,0.7,0.1,0.8,0.4l7.8,22.4
						c0.1,0.3-0.1,0.7-0.4,0.8C177.4,23.9,177.3,23.9,177.2,23.9z"/>
				</g>
				<g>
					<path d="M188.1,23.9c-0.3,0-0.6-0.2-0.7-0.6l-3-22.4c0-0.4,0.2-0.7,0.6-0.8c0.4-0.1,0.7,0.2,0.8,0.6l3,22.4
						C188.8,23.6,188.5,23.9,188.1,23.9C188.1,23.9,188.1,23.9,188.1,23.9z"/>
				</g>
				<g>
					<path d="M177.2,23.9c-0.1,0-0.1,0-0.2,0c-0.3-0.1-0.5-0.5-0.4-0.8l7.8-22.4c0.1-0.3,0.5-0.5,0.8-0.4c0.3,0.1,0.5,0.5,0.4,0.8
						l-7.8,22.4C177.8,23.8,177.5,23.9,177.2,23.9z"/>
				</g>
			</g>
		</g>
	</g>
	<rect x="46.5" y="0.1" width="1" height="23.3"/>
</g>
</svg>
